<svg width="21" height="24" viewBox="0 0 21 24" fill="none" xmlns="http://www.w3.org/2000/svg">
<path d="M19.3641 10.4297L20.4047 11.4703C20.8454 11.9109 20.8454 12.6234 20.4047 13.0594L11.2969 22.1719C10.8563 22.6125 10.1438 22.6125 9.70786 22.1719L0.595361 13.0594C0.154736 12.6187 0.154736 11.9062 0.595361 11.4703L1.63599 10.4297C2.0813 9.98437 2.80786 9.99375 3.2438 10.4484L8.62505 16.0969V2.625C8.62505 2.00156 9.12661 1.5 9.75005 1.5H11.25C11.8735 1.5 12.375 2.00156 12.375 2.625V16.0969L17.7563 10.4484C18.1922 9.98906 18.9188 9.97969 19.3641 10.4297Z" fill="#EEEEEE"/>
</svg>
