<svg width="42" height="42" viewBox="0 0 42 42" fill="none" xmlns="http://www.w3.org/2000/svg">
<path d="M9.18739 34.125H32.8124C33.3112 34.1252 33.7914 34.3146 34.1558 34.6552C34.5203 34.9957 34.742 35.4619 34.776 35.9596C34.81 36.4572 34.6538 36.9492 34.339 37.3362C34.0242 37.7231 33.5743 37.9761 33.0801 38.0441L32.8124 38.0625H9.18739C8.68858 38.0623 8.20842 37.8729 7.84393 37.5323C7.47945 37.1918 7.25782 36.7256 7.22382 36.2279C7.18982 35.7303 7.34599 35.2383 7.66077 34.8513C7.97556 34.4644 8.42548 34.2114 8.91964 34.1434L9.18739 34.125H32.8124H9.18739ZM20.7321 2.64337L20.9999 2.625C21.4756 2.62502 21.9353 2.79731 22.2938 3.11001C22.6524 3.42272 22.8856 3.85467 22.9503 4.326L22.9686 4.59375V24.7747L28.888 18.858C29.2218 18.5243 29.6645 18.3216 30.1352 18.2869C30.606 18.2522 31.0735 18.3878 31.4526 18.669L31.6731 18.858C32.0069 19.1918 32.2095 19.6344 32.2442 20.1052C32.2789 20.5759 32.1433 21.0435 31.8621 21.4226L31.6731 21.6431L22.3911 30.9225C22.0578 31.2559 21.6159 31.4586 21.1457 31.4938C20.6755 31.529 20.2084 31.3942 19.8291 31.1141L19.6086 30.9225L10.3266 21.6431C9.97438 21.2918 9.76818 20.8202 9.74948 20.3231C9.73079 19.8259 9.90099 19.3402 10.2259 18.9634C10.5507 18.5867 11.0062 18.3469 11.5007 18.2923C11.9952 18.2376 12.492 18.3722 12.8913 18.669L13.1118 18.858L19.0311 24.78V4.59375C19.0312 4.118 19.2035 3.65835 19.5162 3.29981C19.8289 2.94126 20.2608 2.70808 20.7321 2.64337L20.9999 2.625L20.7321 2.64337Z" fill="white"/>
</svg>
