<svg width="42" height="42" viewBox="0 0 42 42" fill="none" xmlns="http://www.w3.org/2000/svg">
<path fill-rule="evenodd" clip-rule="evenodd" d="M2.625 21C2.625 25.8734 4.56093 30.5471 8.00691 33.9931C11.4529 37.4391 16.1266 39.375 21 39.375C25.8734 39.375 30.5471 37.4391 33.9931 33.9931C37.4391 30.5471 39.375 25.8734 39.375 21C39.375 16.1266 37.4391 11.4529 33.9931 8.00691C30.5471 4.56093 25.8734 2.625 21 2.625C16.1266 2.625 11.4529 4.56093 8.00691 8.00691C4.56093 11.4529 2.625 16.1266 2.625 21ZM42 21C42 26.5695 39.7875 31.911 35.8492 35.8492C31.911 39.7875 26.5695 42 21 42C15.4305 42 10.089 39.7875 6.15076 35.8492C2.21249 31.911 0 26.5695 0 21C0 15.4305 2.21249 10.089 6.15076 6.15076C10.089 2.21249 15.4305 0 21 0C26.5695 0 31.911 2.21249 35.8492 6.15076C39.7875 10.089 42 15.4305 42 21ZM15.3668 13.5082C15.1203 13.2618 14.786 13.1233 14.4375 13.1233C14.089 13.1233 13.7547 13.2618 13.5082 13.5082C13.2618 13.7547 13.1233 14.089 13.1233 14.4375C13.1233 14.786 13.2618 15.1203 13.5082 15.3668L24.2629 26.1187H16.9969C16.6488 26.1187 16.3149 26.257 16.0688 26.5032C15.8227 26.7493 15.6844 27.0832 15.6844 27.4312C15.6844 27.7793 15.8227 28.1132 16.0688 28.3593C16.3149 28.6055 16.6488 28.7437 16.9969 28.7437H27.4312C27.7793 28.7437 28.1132 28.6055 28.3593 28.3593C28.6055 28.1132 28.7437 27.7793 28.7437 27.4312V16.9969C28.7437 16.6488 28.6055 16.3149 28.3593 16.0688C28.1132 15.8227 27.7793 15.6844 27.4312 15.6844C27.0832 15.6844 26.7493 15.8227 26.5032 16.0688C26.257 16.3149 26.1187 16.6488 26.1187 16.9969V24.2629L15.3668 13.5082Z" fill="#EEEEEE"/>
</svg>
