<svg width="43" height="42" viewBox="0 0 43 42" fill="none" xmlns="http://www.w3.org/2000/svg">
<path d="M24.7123 10.5V7H17.6889V10.5H24.7123ZM7.1538 15.75V31.5C7.1538 32.4625 7.94393 33.25 8.90965 33.25H33.4916C34.4573 33.25 35.2474 32.4625 35.2474 31.5V15.75C35.2474 14.7875 34.4573 14 33.4916 14H8.90965C7.94393 14 7.1538 14.7875 7.1538 15.75ZM35.2474 10.5C37.1964 10.5 38.7591 12.0575 38.7591 14V33.25C38.7591 35.1925 37.1964 36.75 35.2474 36.75H7.1538C5.2048 36.75 3.64209 35.1925 3.64209 33.25L3.65965 14C3.65965 12.0575 5.2048 10.5 7.1538 10.5H14.1772V7C14.1772 5.0575 15.7399 3.5 17.6889 3.5H24.7123C26.6613 3.5 28.224 5.0575 28.224 7V10.5H35.2474Z" fill="#EEEEEE"/>
</svg>
