<svg width="42" height="42" viewBox="0 0 42 42" fill="none" xmlns="http://www.w3.org/2000/svg">
<path fill-rule="evenodd" clip-rule="evenodd" d="M21 38.5C11.3348 38.5 3.5 30.6653 3.5 21C3.5 11.3348 11.3348 3.5 21 3.5C30.6653 3.5 38.5 11.3348 38.5 21C38.5 30.6653 30.6653 38.5 21 38.5ZM28 22.75C28 24.6065 27.2625 26.387 25.9498 27.6998C24.637 29.0125 22.8565 29.75 21 29.75C19.1435 29.75 17.363 29.0125 16.0503 27.6998C14.7375 26.387 14 24.6065 14 22.75H28ZM21 35C24.713 35 28.274 33.525 30.8995 30.8995C33.525 28.274 35 24.713 35 21C35 17.287 33.525 13.726 30.8995 11.1005C28.274 8.475 24.713 7 21 7C17.287 7 13.726 8.475 11.1005 11.1005C8.475 13.726 7 17.287 7 21C7 24.713 8.475 28.274 11.1005 30.8995C13.726 33.525 17.287 35 21 35ZM16.625 19.25C17.3212 19.25 17.9889 18.9734 18.4812 18.4812C18.9734 17.9889 19.25 17.3212 19.25 16.625C19.25 15.9288 18.9734 15.2611 18.4812 14.7688C17.9889 14.2766 17.3212 14 16.625 14C15.9288 14 15.2611 14.2766 14.7688 14.7688C14.2766 15.2611 14 15.9288 14 16.625C14 17.3212 14.2766 17.9889 14.7688 18.4812C15.2611 18.9734 15.9288 19.25 16.625 19.25ZM25.375 19.25C26.0712 19.25 26.7389 18.9734 27.2312 18.4812C27.7234 17.9889 28 17.3212 28 16.625C28 15.9288 27.7234 15.2611 27.2312 14.7688C26.7389 14.2766 26.0712 14 25.375 14C24.6788 14 24.0111 14.2766 23.5188 14.7688C23.0266 15.2611 22.75 15.9288 22.75 16.625C22.75 17.3212 23.0266 17.9889 23.5188 18.4812C24.0111 18.9734 24.6788 19.25 25.375 19.25Z" fill="#EEEEEE"/>
</svg>
