<svg width="383" height="470" viewBox="0 0 383 470" fill="none" xmlns="http://www.w3.org/2000/svg">
<path id="plant" d="M67.9991 468.891L67.0479 467.132C79.8014 460.234 95.6737 451.651 103.964 437.564C112.136 423.678 112.32 404.822 104.442 388.354C97.7388 374.338 85.4246 361.781 68.8314 352.041C65.5584 350.119 62.1226 348.298 58.7999 346.537C50.7684 342.281 42.4635 337.879 35.6156 331.634C26.1839 323.033 19.0477 308.6 24.3665 295.743C26.1158 291.64 28.9806 288.109 32.6356 285.551C36.2907 282.994 40.5895 281.513 45.0441 281.276L45.1568 283.273C41.076 283.489 37.1375 284.845 33.7883 287.187C30.4391 289.529 27.8134 292.762 26.2091 296.521C21.2665 308.468 28.0477 322.026 36.9632 330.157C43.6239 336.23 51.815 340.572 59.7364 344.77C63.078 346.541 66.5335 348.373 69.8441 350.316C86.7826 360.259 99.3705 373.114 106.247 387.49C114.407 404.551 114.193 424.127 105.688 438.579C97.1148 453.145 80.971 461.876 67.9991 468.891Z" fill="#EEEEEE"/>
<path id="plant" d="M57.72 291.817C67.385 291.817 75.22 288.011 75.22 283.317C75.22 278.623 67.385 274.817 57.72 274.817C48.055 274.817 40.22 278.623 40.22 283.317C40.22 288.011 48.055 291.817 57.72 291.817Z" fill="#EEEEEE"/>
<path id="plant" d="M71.72 347.817C81.3849 347.817 89.22 344.011 89.22 339.317C89.22 334.623 81.3849 330.817 71.72 330.817C62.055 330.817 54.22 334.623 54.22 339.317C54.22 344.011 62.055 347.817 71.72 347.817Z" fill="#EEEEEE"/>
<path id="plant" d="M39.72 356.817C49.385 356.817 57.22 353.011 57.22 348.317C57.22 343.623 49.385 339.817 39.72 339.817C30.055 339.817 22.22 343.623 22.22 348.317C22.22 353.011 30.055 356.817 39.72 356.817Z" fill="#EEEEEE"/>
<path id="plant" d="M89.72 403.817C99.385 403.817 107.22 400.011 107.22 395.317C107.22 390.623 99.385 386.817 89.72 386.817C80.055 386.817 72.22 390.623 72.22 395.317C72.22 400.011 80.055 403.817 89.72 403.817Z" fill="#EEEEEE"/>
<path id="plant" d="M124.72 403.817C134.385 403.817 142.22 400.011 142.22 395.317C142.22 390.623 134.385 386.817 124.72 386.817C115.055 386.817 107.22 390.623 107.22 395.317C107.22 400.011 115.055 403.817 124.72 403.817Z" fill="#EEEEEE"/>
<path d="M163.436 456.698L175.696 456.697L181.528 409.409L163.434 409.41L163.436 456.698Z" fill="#FFB6B6"/>
<path d="M160.309 452.695L184.453 452.694H184.454C188.535 452.694 192.448 454.315 195.334 457.201C198.219 460.086 199.84 464 199.841 468.08V468.58L160.31 468.582L160.309 452.695Z" fill="#2C2C2C"/>
<path d="M209.436 456.698L221.696 456.697L227.528 409.409L209.434 409.41L209.436 456.698Z" fill="#FFB6B6"/>
<path d="M206.309 452.695L230.453 452.694H230.454C234.535 452.694 238.448 454.315 241.334 457.201C244.219 460.086 245.84 464 245.841 468.08V468.58L206.31 468.582L206.309 452.695Z" fill="#2C2C2C"/>
<path d="M126.237 269.84C127.24 268.766 127.996 267.484 128.45 266.086C128.905 264.688 129.047 263.207 128.868 261.748C128.688 260.289 128.191 258.887 127.411 257.641C126.631 256.395 125.587 255.335 124.353 254.536L132.871 219.831L115.379 226.064L109.972 258.065C108.767 260.227 108.397 262.756 108.932 265.172C109.466 267.589 110.869 269.725 112.874 271.177C114.879 272.628 117.347 273.294 119.809 273.047C122.272 272.801 124.559 271.66 126.237 269.84Z" fill="#FFB6B6"/>
<path d="M252.635 268.009C251.631 266.934 250.876 265.653 250.421 264.255C249.967 262.857 249.824 261.376 250.004 259.917C250.183 258.458 250.681 257.056 251.461 255.81C252.241 254.564 253.284 253.504 254.518 252.705L246 218L263.492 224.233L268.9 256.234C270.105 258.396 270.475 260.924 269.94 263.341C269.405 265.758 268.002 267.894 265.997 269.345C263.993 270.797 261.525 271.462 259.062 271.216C256.599 270.97 254.312 269.828 252.635 268.009Z" fill="#FFB6B6"/>
<path d="M142.367 245.513L159.36 444.578L184.224 442.311L194.175 288.461L203.033 349.379L204.807 446.145L227.307 444.645L239.801 340.545L236.736 239.728L151.319 231.078L142.367 245.513Z" fill="#393939"/>
<path d="M189.112 64.3682C203.353 64.3682 214.898 52.8236 214.898 38.5825C214.898 24.3414 203.353 12.7968 189.112 12.7968C174.871 12.7968 163.326 24.3414 163.326 38.5825C163.326 52.8236 174.871 64.3682 189.112 64.3682Z" fill="#FFB6B6"/>
<path d="M151.5 30C157.299 30 162 25.9706 162 21C162 16.0294 157.299 12 151.5 12C145.701 12 141 16.0294 141 21C141 25.9706 145.701 30 151.5 30Z" fill="#2C2C2C"/>
<path d="M185.115 23.5641C185.115 23.5641 195.737 26.8484 201.238 28.1621C206.738 29.4759 206.169 25.7536 206.169 25.7536C206.169 25.7536 213.377 26.8484 212.998 25.9725C212.619 25.0967 216.033 20.4987 212.049 15.2438C208.066 9.98882 209.204 6.04767 209.204 6.04767H205.79L204.842 4.51497H199.531C199.531 4.51497 193.659 -1.42861 183.227 0.322983C172.794 2.07457 160.457 6.70452 159.319 13.93C159.164 14.9101 158.961 15.9989 158.725 17.1489C155.873 31.0512 161.934 44.0589 168.22 56.3656C169.765 59.3901 177.239 65.9853 177.048 61.4604C176.856 56.9355 170.32 46.7733 174.872 46.1164C179.425 45.4595 187.202 32.1033 185.115 23.5641Z" fill="#2C2C2C"/>
<path id="shirt" d="M161.071 77H206.483L238.592 246.575C238.592 246.575 210.598 248.969 194.598 254.969C178.598 260.969 152 241.263 152 241.263L161.071 77Z"/>
<path d="M166.339 94.1811V75.0313L161.197 75L123.63 98.885L131.782 229.748C131.782 229.748 141.429 273.406 156.063 272.953C170.697 272.5 181.98 116.862 166.339 94.1811Z" fill="#2C2C2C"/>
<path d="M135.697 102.5L123.63 98.885C123.63 98.885 114.697 101.5 114.697 110.5C114.697 119.5 107 247.368 107 247.368L131.451 249.529L136.697 184.5L135.697 102.5Z" fill="#2C2C2C"/>
<path d="M202.697 87.5L200.291 75.0313L207.197 74L232.197 84C232.197 84 254.697 248.5 244.697 253.5C234.697 258.5 227.945 254.626 227.945 254.626C227.945 254.626 195.053 133.3 200.875 116.9L202.697 87.5Z" fill="#2C2C2C"/>
<path d="M214.697 86.5001L218.963 84.643C218.963 84.643 231.486 78.4373 238.592 90.9687C245.697 103.5 270.697 243.5 270.697 243.5L250.126 247.368L234.748 196.984L214.697 86.5001Z" fill="#2C2C2C"/>
<path id="ground" d="M382 469.145H1C0.734784 469.145 0.480429 469.04 0.292892 468.852C0.105356 468.665 0 468.41 0 468.145C0 467.88 0.105356 467.626 0.292892 467.438C0.480429 467.251 0.734784 467.145 1 467.145H382C382.265 467.145 382.52 467.251 382.707 467.438C382.895 467.626 383 467.88 383 468.145C383 468.41 382.895 468.665 382.707 468.852C382.52 469.04 382.265 469.145 382 469.145Z" fill="#EEEEEE"/>
</svg>
