<svg width="392" height="370" viewBox="0 0 392 370" fill="none" xmlns="http://www.w3.org/2000/svg">
<g clip-path="url(#clip0)">
<path d="M285 210V312.21L302.087 340.055L303.354 342.21H370.654L372.032 210H285Z" fill="#EEEEEE"/>
<path opacity="0.1" d="M284.575 209.945V312.155L301.661 340L302.709 209.945H284.575Z" fill="black"/>
<path d="M122.142 207.238V309.447L105.055 337.293L103.788 339.392H36.4883L35.1104 207.238H122.142Z" fill="#EEEEEE"/>
<path opacity="0.1" d="M122.142 207.238V309.447L105.055 337.293L104.008 207.238H122.142Z" fill="black"/>
<path d="M392 205.193V211.326H26.291V202.486L60.2438 184.751H362.071L392 205.193Z" fill="#EEEEEE"/>
<path opacity="0.1" d="M392 205.193V211.326H26.291V202.486L392 205.193Z" fill="black"/>
<path d="M78.5984 235.856H62.2834L55.5039 231.05H86.0945L78.5984 235.856Z" fill="#393939"/>
<path d="M78.5984 255.58H62.2834L55.5039 250.829H86.0945L78.5984 255.58Z" fill="#393939"/>
<path d="M78.5984 283.536H62.2834L55.5039 278.785H86.0945L78.5984 283.536Z" fill="#393939"/>
<path d="M78.5984 311.492H62.2834L55.5039 306.685H86.0945L78.5984 311.492Z" fill="#393939"/>
<path d="M328.118 238.564H344.433L351.213 233.812H320.622L328.118 238.564Z" fill="#393939"/>
<path d="M328.118 258.343H344.433L351.213 253.536H320.622L328.118 258.343Z" fill="#393939"/>
<path d="M328.118 286.243H344.433L351.213 281.492H320.622L328.118 286.243Z" fill="#393939"/>
<path d="M328.118 314.199H344.433L351.213 309.448H320.622L328.118 314.199Z" fill="#393939"/>
<path d="M339.197 66.5747H201.843C198.977 66.5747 196.662 68.8951 196.662 71.7681V164.53C196.662 167.403 198.977 169.724 201.843 169.724H253.984L252.055 182.21C252.055 182.21 240.866 188.177 248.748 188.343C256.63 188.508 293.559 188.343 293.559 188.343C293.559 188.343 300.725 188.343 289.37 182.044L287.551 169.724H339.197C342.063 169.724 344.378 167.403 344.378 164.53V71.7681C344.378 68.8951 342.063 66.5747 339.197 66.5747Z" fill="#2C2C2C"/>
<path d="M339.417 72.0442H201.622V149.337H339.417V72.0442Z" fill="#EEEEEE"/>
<path d="M270.52 70.4972C271.007 70.4972 271.401 70.1014 271.401 69.6132C271.401 69.125 271.007 68.7292 270.52 68.7292C270.033 68.7292 269.638 69.125 269.638 69.6132C269.638 70.1014 270.033 70.4972 270.52 70.4972Z" fill="#EEEEEE"/>
<path d="M270.52 165.912C272.346 165.912 273.827 164.427 273.827 162.597C273.827 160.766 272.346 159.282 270.52 159.282C268.694 159.282 267.213 160.766 267.213 162.597C267.213 164.427 268.694 165.912 270.52 165.912Z" fill="#EEEEEE"/>
<path d="M265.393 197.79V199.503H171.527V198.122L171.638 197.79L173.953 191.492H263.464L265.393 197.79Z" fill="#393939"/>
<path d="M301.496 196.077C301.33 196.796 300.669 197.569 299.236 198.287C294 200.884 283.362 197.569 283.362 197.569C283.362 197.569 275.149 196.188 275.149 192.486C275.37 192.32 275.645 192.21 275.866 192.044C278.071 190.884 285.346 188.011 298.299 192.155C299.236 192.431 300.118 193.039 300.779 193.757C301.331 194.42 301.606 195.249 301.496 196.077Z" fill="#454545"/>
<path opacity="0.1" d="M301.496 196.077C295.102 198.563 289.37 198.729 283.528 194.641C281.323 192.983 278.622 192.099 275.866 192.099C278.071 190.939 285.347 188.066 298.299 192.21C299.236 192.486 300.118 193.094 300.78 193.812C301.331 194.42 301.606 195.249 301.496 196.077Z" fill="white"/>
<path d="M293.449 194.641C294.697 194.641 295.709 194.319 295.709 193.923C295.709 193.526 294.697 193.204 293.449 193.204C292.201 193.204 291.189 193.526 291.189 193.923C291.189 194.319 292.201 194.641 293.449 194.641Z" fill="#EEEEEE"/>
<path opacity="0.1" d="M265.393 197.79V199.503H171.527V198.122L171.638 197.79H265.393Z" fill="black"/>
<path d="M50.9844 8.46349e-05C50.1025 -0.110413 49.2206 0.16583 48.449 0.718317C47.6773 1.3813 48.449 0.718317 46.1892 2.09953C42.9372 4.53047 43.764 3.97799 41.2285 6.51942C39.0238 8.61887 34.3388 19.1714 34.6695 22.9835C34.8899 24.2542 35.2206 25.4697 35.7167 26.5747C37.7561 31.8785 43.2679 35.9669 42.7167 42.0443C44.7561 37.6796 42.0553 35.5249 44.0395 31.1603C44.9766 29.0609 46.6852 26.7404 48.1183 28.0111C48.6143 28.4531 48.9451 29.2266 49.4411 29.6133C50.6537 30.5526 51.9214 28.7846 53.0238 27.5139C56.7167 23.2598 61.9529 24.3647 66.5277 25.6907C68.6773 26.2984 71.0474 27.1272 72.3703 29.8343C74.0789 33.3703 70.7718 37.1824 69.9451 41.1603C69.7246 42.3205 70.2758 43.4807 71.1577 43.8122C71.3781 43.8675 71.5435 43.9227 71.764 43.8675C73.1419 43.7017 74.7403 43.536 74.8506 42.7625C76.5592 42.8178 77.7167 36.1327 78.4884 33.8122C78.7088 32.873 79.701 29.5581 79.701 28.6189C81.0789 24.7515 80.5277 26.1879 81.4096 22.5415C82.1813 19.1714 82.1813 18.4531 81.0789 14.9172C80.5829 13.8122 80.0868 12.7073 79.3703 11.8785C71.2128 1.71279 61.2364 8.46349e-05 50.9844 8.46349e-05Z" fill="#2C2C2C"/>
<path d="M45.252 41.3813C45.252 41.3813 47.1812 57.2929 40.1812 58.5636C33.1812 59.8343 46.5198 81.4365 46.5198 81.4365L78.2678 85.2487L70.6615 59.8343C70.6615 59.8343 65.5906 57.9006 68.7324 45.1934C71.8741 32.4862 45.252 41.3813 45.252 41.3813Z" fill="#FFB6B6"/>
<path d="M25.9053 314.53L28.4407 349.503H41.7793L37.9761 314.53H25.9053Z" fill="#FFB8B8"/>
<path d="M123.63 248.398L125.559 277.679L140.11 271.271L134.433 247.127L123.63 248.398Z" fill="#FFB8B8"/>
<path d="M16.4253 180.995C16.4253 180.995 17.0867 217.901 20.8899 229.945C24.693 241.989 24.0867 242.652 23.4253 244.586C22.7639 246.519 22.1576 245.249 22.1576 248.398C22.1576 251.547 20.8899 301.823 22.1576 306.298C23.4253 310.773 18.3544 318.398 22.1576 319.006C25.9607 319.613 43.7088 319.006 44.3702 315.193C45.0316 311.381 39.2993 310.111 41.8347 307.569C44.3702 305.028 48.1733 252.873 48.1733 252.873L57.0473 216.63L73.5276 197.569H108.417L119.221 239.558C119.221 239.558 114.756 251.657 117.953 251.657C121.15 251.657 140.165 255.47 140.165 241.492C140.165 227.514 133.827 186.188 132.559 184.862C131.291 183.536 133.221 179.116 131.291 177.238C129.362 175.359 107.205 161.989 98.9371 159.448C90.6694 156.906 79.0946 153.867 79.0946 153.867L16.4253 180.995Z" fill="#393939"/>
<path d="M140.11 266.188C140.11 266.188 130.575 262.983 126.165 272.541C121.756 282.1 123.63 284.641 123.63 284.641C123.63 284.641 138.236 289.724 140.772 287.182C141.874 286.077 145.402 285.691 148.984 285.635C154.496 285.525 155.929 277.735 150.748 275.912C150.583 275.856 150.417 275.801 150.252 275.746C145.181 274.475 140.11 266.188 140.11 266.188Z" fill="#2C2C2C"/>
<path d="M59.5275 51.8784C70.0296 51.8784 78.5432 43.3446 78.5432 32.8176C78.5432 22.2906 70.0296 13.7568 59.5275 13.7568C49.0254 13.7568 40.5117 22.2906 40.5117 32.8176C40.5117 43.3446 49.0254 51.8784 59.5275 51.8784Z" fill="#FFB6B6"/>
<path d="M34.7798 66.5193C34.7798 66.5193 65.8664 72.8729 73.4727 62.7071C81.079 52.5414 84.2758 91.3259 84.2758 91.3259L88.079 132.044L82.3467 154.309C82.3467 154.309 52.5278 178.453 42.9924 180.387C33.4569 182.32 18.9058 183.591 18.9058 183.591C18.9058 183.591 23.3703 112.983 23.3703 111.713C23.3703 110.442 34.7798 66.5193 34.7798 66.5193Z" fill="#FF5C5C"/>
<path d="M44.2601 54.5857C44.2601 54.5857 37.3703 50.6078 35.4412 54.4199C33.512 58.2321 15.764 67.7901 13.89 67.7901C12.016 67.7901 17.6931 120.553 15.1577 126.961C12.6223 133.37 0.551391 179.724 7.49627 183.536C14.4412 187.348 9.42541 179.724 16.3703 189.282C23.3152 198.84 57.5986 198.84 59.5278 195.028C61.4569 191.216 44.3152 162.597 47.4569 135.856C50.5986 109.116 55.7246 72.2652 51.2601 67.1824C46.7955 62.0995 44.2601 54.5857 44.2601 54.5857Z" fill="#2C2C2C"/>
<path d="M67 59.0461L67.9475 56C67.9475 56 96.3142 64.8059 97.6763 70.5104C99.0383 76.2148 98.3869 116.423 93.5901 119.58C88.7932 122.737 81.9828 127.887 86.7797 135.53C91.5766 143.173 97.0248 151.48 101.111 152.09C105.197 152.699 112.718 157.185 110.646 161.671C108.573 166.157 84.0555 157.849 84.0555 157.849C84.0555 157.849 67.7106 146.385 68.3621 128.496C69.0135 110.608 67 59.0461 67 59.0461Z" fill="#2C2C2C"/>
<path d="M89.3467 133.923L74.1341 162.541C74.1341 162.541 51.9215 185.414 64.5987 187.956C77.2758 190.497 84.2758 166.961 84.2758 166.961L100.756 143.425L89.3467 133.923Z" fill="#FFB6B6"/>
<path d="M51.3701 3.59128C50.5985 3.53603 49.8268 3.70178 49.1654 4.03327C48.5591 4.47526 48.0079 5.08299 47.6772 5.74598C45.9685 8.34266 43.7638 10.4974 41.1733 12.1548C39.2441 13.3703 36.8189 14.9172 37.1496 17.1824C37.315 17.9559 37.6457 18.6742 38.0867 19.2819C39.8504 22.4311 40.567 26.0775 40.126 29.6686L45.4174 21.9338C46.2441 20.7184 47.7323 19.3371 49 20.1106C49.441 20.3869 49.7166 20.8288 50.1575 21.0498C51.2048 21.6023 52.3622 20.5526 53.2441 19.8344C56.441 17.2929 61.0709 17.9559 65.0394 18.7847C66.9134 19.1714 69.0079 19.6134 70.1103 21.2156C71.9843 23.8123 70.0552 27.6244 71.1024 30.6079C71.7087 30.1659 72.1496 29.5029 72.2599 28.7847C73.7481 28.8399 75.6221 28.6742 76.2835 27.2929C76.504 26.7405 76.5591 26.188 76.6142 25.6355C76.8347 23.315 77.9922 21.2156 78.7087 19.0609C79.4252 16.9062 79.7559 14.3095 78.5433 12.3758C78.1024 11.7128 77.5512 11.1051 76.8898 10.6631C69.7244 4.58576 60.3544 3.59128 51.3701 3.59128Z" fill="#2C2C2C"/>
<path d="M89.3463 67.79L95.2439 69.337C95.2439 69.337 109.023 104.641 105.827 128.84C102.63 153.039 100.756 147.901 100.756 147.901C100.756 147.901 95.6848 136.464 84.2754 139.006L89.3463 67.79Z" fill="#2C2C2C"/>
<path d="M26.7875 344.917C25.2442 347.017 25.5749 350 24.197 352.21C23.0395 354.144 20.8348 355.138 19.3466 356.796C18.8505 357.348 18.4647 357.956 18.0789 358.619C16.7009 360.884 15.5985 363.867 16.9765 366.133C18.0789 368.011 20.3387 368.729 22.4332 369.227C25.0789 369.834 27.7796 370.332 30.4804 369.89C33.1812 369.448 35.7167 367.79 36.7088 365.249C36.8741 364.586 37.0946 363.978 37.3702 363.37C38.8033 360.497 43.323 360.497 44.8111 357.68C45.8584 355.691 44.9214 353.315 43.9293 351.271L41.008 345.083C40.071 343.039 36.1576 344.199 34.1182 343.702C31.4726 342.983 28.7167 342.265 26.7875 344.917Z" fill="#2C2C2C"/>
<path d="M5.62207 146.63L32.2441 187.956C32.2441 187.956 48.7244 208.95 53.7953 199.392C58.8662 189.834 36.0473 173.978 36.0473 173.978L18.9055 142.155L5.62207 146.63Z" fill="#FFB6B6"/>
<path d="M18.9605 69.0608L13.8896 67.79C13.8896 67.79 3.74787 70.9945 1.21244 84.3094C-1.32299 97.6243 0.551021 151.105 3.69275 151.713C6.83449 152.32 19.3463 142.431 21.3857 144.53C23.425 146.63 17.0313 135.801 18.9605 130.11C20.8896 124.42 18.9605 69.0608 18.9605 69.0608Z" fill="#2C2C2C"/>
<path d="M257.512 97.4585H241.087V101.436H257.512V97.4585Z" fill="#FF5C5C"/>
<path d="M314.284 97.4585H308.496V101.436H314.284V97.4585Z" fill="#FF5C5C"/>
<path d="M325.859 97.4585H320.071V101.436H325.859V97.4585Z" fill="#FF5C5C"/>
<path d="M302.433 97.4585H263.244V101.436H302.433V97.4585Z" fill="#FF5C5C"/>
<path d="M236.843 122.983H220.417V126.961H236.843V122.983Z" fill="#FF5C5C"/>
<path d="M293.669 122.983H287.882V126.961H293.669V122.983Z" fill="#FF5C5C"/>
<path d="M305.189 122.983H299.402V126.961H305.189V122.983Z" fill="#FF5C5C"/>
<path d="M281.819 122.983H242.63V126.961H281.819V122.983Z" fill="#FF5C5C"/>
<path d="M304.583 106.243H288.158V110.221H304.583V106.243Z" fill="#FF5C5C"/>
<path d="M326.74 106.243H310.315V110.221H326.74V106.243Z" fill="#FF5C5C"/>
<path d="M226.205 106.243H220.417V110.221H226.205V106.243Z" fill="#FF5C5C"/>
<path d="M237.78 106.243H231.992V110.221H237.78V106.243Z" fill="#FF5C5C"/>
<path d="M282.701 106.243H243.512V110.221H282.701V106.243Z" fill="#FF5C5C"/>
<path d="M270.575 114.807H254.15V118.785H270.575V114.807Z" fill="#FF5C5C"/>
<path d="M248.417 114.807H231.992V118.785H248.417V114.807Z" fill="#FF5C5C"/>
<path d="M226.205 114.807H220.417V118.785H226.205V114.807Z" fill="#FF5C5C"/>
<path d="M326.741 114.807H320.953V118.785H326.741V114.807Z" fill="#FF5C5C"/>
<path d="M315.221 114.807H276.032V118.785H315.221V114.807Z" fill="#FF5C5C"/>
<path d="M40.512 12.3758C43.7083 12.3758 46.2994 9.75381 46.2994 6.51944C46.2994 3.28506 43.7083 0.663086 40.512 0.663086C37.3157 0.663086 34.7246 3.28506 34.7246 6.51944C34.7246 9.75381 37.3157 12.3758 40.512 12.3758Z" fill="#2C2C2C"/>
<path d="M36.8741 16.0774C38.8832 16.0774 40.5119 14.4201 40.5119 12.3757C40.5119 10.3314 38.8832 8.67407 36.8741 8.67407C34.865 8.67407 33.2363 10.3314 33.2363 12.3757C33.2363 14.4201 34.865 16.0774 36.8741 16.0774Z" fill="#2C2C2C"/>
<path d="M41.3388 32.8176C42.9217 32.8176 44.2049 31.1603 44.2049 29.116C44.2049 27.0716 42.9217 25.4143 41.3388 25.4143C39.7559 25.4143 38.4727 27.0716 38.4727 29.116C38.4727 31.1603 39.7559 32.8176 41.3388 32.8176Z" fill="#FFB8B8"/>
</g>
<defs>
<clipPath id="clip0">
<rect width="392" height="370" fill="white"/>
</clipPath>
</defs>
</svg>
