<svg width="339" height="245" viewBox="0 0 339 245" fill="none" xmlns="http://www.w3.org/2000/svg">
<path d="M216.021 183.67V242.729H67.6176C50.7131 242.729 36.9526 229.463 36.9526 213.2C36.9526 196.936 50.7131 183.67 67.6176 183.67H216.021Z" fill="#F2F2F2"/>
<path d="M219.666 242.274C219.666 243.546 218.664 244.546 217.388 244.546H64.9749C47.7515 244.546 33.7632 230.599 33.7632 213.427C33.7632 196.254 47.7515 182.308 64.9749 182.308H217.388C218.664 182.308 219.666 183.307 219.666 184.579C219.666 185.851 218.664 186.851 217.388 186.851H64.9749C50.2575 186.851 38.3196 198.753 38.3196 213.427C38.3196 228.1 50.2575 240.003 64.9749 240.003H217.388C218.664 240.003 219.666 241.002 219.666 242.274Z" fill="#FF5C5C"/>
<path d="M216.021 197.299H56.5455C56.2721 197.299 56.0898 197.118 56.0898 196.845C56.0898 196.572 56.2721 196.391 56.5455 196.391H216.021C216.295 196.391 216.477 196.572 216.477 196.845C216.477 197.118 216.295 197.299 216.021 197.299Z" fill="#CCCCCC"/>
<path d="M216.021 208.202H56.5455C56.2721 208.202 56.0898 208.021 56.0898 207.748C56.0898 207.475 56.2721 207.294 56.5455 207.294H216.021C216.295 207.294 216.477 207.475 216.477 207.748C216.477 208.021 216.295 208.202 216.021 208.202Z" fill="#CCCCCC"/>
<path d="M216.021 219.105H56.5455C56.2721 219.105 56.0898 218.924 56.0898 218.651C56.0898 218.378 56.2721 218.197 56.5455 218.197H216.021C216.295 218.197 216.477 218.378 216.477 218.651C216.477 218.924 216.295 219.105 216.021 219.105Z" fill="#CCCCCC"/>
<path d="M216.021 230.008H56.5455C56.2721 230.008 56.0898 229.827 56.0898 229.554C56.0898 229.281 56.2721 229.1 56.5455 229.1H216.021C216.295 229.1 216.477 229.281 216.477 229.554C216.477 229.827 216.295 230.008 216.021 230.008Z" fill="#CCCCCC"/>
<path d="M330.707 194.801L293.572 240.775L178.021 147.918C164.853 137.333 162.483 118.434 172.735 105.759C182.987 93.0846 202.033 91.3583 215.201 101.943L330.707 194.801Z" fill="#F2F2F2"/>
<path d="M296.671 242.683C295.896 243.637 294.438 243.819 293.481 243.047L174.786 147.691C161.344 136.924 159.248 117.298 170.047 103.942C180.846 90.5405 200.53 88.4508 213.926 99.2175L332.621 194.574C333.624 195.346 333.76 196.8 332.986 197.754C332.211 198.708 330.753 198.889 329.796 198.117L211.101 102.761C199.618 93.5388 182.851 95.356 173.601 106.759C164.351 118.207 166.174 134.925 177.611 144.147L296.306 239.503C297.309 240.275 297.491 241.729 296.671 242.683Z" fill="#CCCCCC"/>
<path d="M322.141 205.386L197.978 105.623C197.795 105.487 197.75 105.169 197.887 104.987C198.023 104.805 198.342 104.76 198.525 104.896L322.688 204.659C322.87 204.795 322.916 205.113 322.779 205.295C322.642 205.522 322.323 205.567 322.141 205.386Z" fill="#CCCCCC"/>
<path d="M315.306 213.881L191.098 114.118C190.915 113.982 190.87 113.664 191.052 113.482C191.189 113.301 191.508 113.255 191.69 113.391L315.853 213.154C316.036 213.29 316.081 213.608 315.944 213.79C315.762 214.017 315.489 214.063 315.306 213.881Z" fill="#CCCCCC"/>
<path d="M308.426 222.376L184.263 122.614C184.08 122.477 184.035 122.159 184.217 121.978C184.354 121.796 184.673 121.75 184.855 121.887L309.018 221.649C309.201 221.786 309.246 222.104 309.109 222.285C308.927 222.513 308.608 222.513 308.426 222.376Z" fill="#CCCCCC"/>
<path d="M301.546 230.872L177.383 131.109C177.2 130.973 177.155 130.655 177.291 130.473C177.428 130.291 177.747 130.246 177.929 130.382L302.093 230.145C302.275 230.281 302.32 230.599 302.184 230.781C302.047 231.008 301.774 231.008 301.546 230.872Z" fill="#CCCCCC"/>
<path d="M154.053 177.447H148.814L146.353 163.636H154.053V177.447Z" fill="#FFB6B6"/>
<path d="M145.123 175.993H155.147V182.308H138.79C138.79 178.81 141.615 175.993 145.123 175.993Z" fill="#2C2C2C"/>
<path d="M100.834 177.447H95.6398L93.1338 157.412H100.834V177.447Z" fill="#FFB6B6"/>
<path d="M91.9038 175.993H101.928V182.308H85.5703C85.5703 178.81 88.3953 175.993 91.9038 175.993Z" fill="#2C2C2C"/>
<path d="M122.341 27.5302V25.7584C122.341 19.4437 127.626 14.3102 134.188 14.3102C140.749 14.3102 146.034 19.4437 146.034 25.7584V27.5302C146.034 32.0731 142.207 35.7529 137.514 35.7529H130.907C126.168 35.7983 122.341 32.0731 122.341 27.5302Z" fill="#2C2C2C"/>
<path d="M132.456 41.1135C138.068 41.1135 142.617 36.11 142.617 29.9379C142.617 23.7658 138.068 18.7623 132.456 18.7623C126.844 18.7623 122.295 23.7658 122.295 29.9379C122.295 36.11 126.844 41.1135 132.456 41.1135Z" fill="#FFB6B6"/>
<path d="M72.0374 67.417C73.7689 65.7815 76.4572 65.8724 78.0975 67.5987C78.2798 67.7804 78.4165 67.9621 78.5532 68.1893L88.1673 66.3721L90.6733 71.9145L77.0951 74.2768C75.0447 75.458 72.4019 74.7311 71.2628 72.6414C70.2604 70.915 70.5794 68.7344 72.0374 67.417Z" fill="#FFB6B6"/>
<path d="M124.209 47.2464L124.346 47.4281L108.626 57.7406L82.0616 66.1904C81.3326 66.4176 80.877 67.1444 80.9681 67.8713L81.5604 72.8231C81.6516 73.6863 82.4717 74.3223 83.3375 74.2314C83.383 74.2314 83.4286 74.2314 83.4741 74.186L108.443 68.8253C109.674 68.5527 110.813 68.053 111.815 67.3716L129.494 54.8331C130.816 53.9245 131.499 52.3799 131.408 50.7899C131.18 48.2913 128.993 46.4287 126.487 46.6558C125.712 46.7013 124.983 46.9739 124.346 47.3827L124.209 47.2464Z" fill="#FF5C5C"/>
<path d="M147.902 174.267C147.538 172.995 147.857 172.722 147.037 170.587L123.161 111.756C123.024 111.393 122.796 111.438 122.386 111.529C122.204 111.62 122.204 111.62 121.885 111.801L117.648 113.346C111.861 122.932 101.244 172.495 101.609 171.087C101.563 171.087 101.29 173.313 101.244 173.313L93.4073 173.085C92.5871 173.585 91.8125 154.096 92.7694 146.328C96.7335 117.071 114.549 76.3211 114.823 75.6851L114.914 75.5034L138.288 80.6369L138.334 80.6824C140.248 93.8568 137.924 114.255 144.029 128.701C150.226 139.422 156.423 171.813 155.922 173.994L150.773 174.176C150.454 174.221 148.13 174.267 147.902 174.267Z" fill="#393939"/>
<path d="M126.76 91.9943C121.11 91.9943 113.364 89.7228 108.307 90.4951L111.724 78.2746L113.364 72.278C113.82 69.0071 114.093 65.0093 115.05 59.9666C115.46 57.9677 116.782 49.427 119.288 46.247C120.791 45.2021 118.741 46.0653 126.35 43.6121C128.492 42.9307 130.633 42.3855 132.866 41.9312C136.101 41.2952 139.473 42.1129 142.024 44.2027C144.622 46.2924 146.125 49.427 146.171 52.7888C146.262 61.0115 144.257 70.5516 140.338 81.2729C140.02 81.6364 139.609 89.6774 140.02 92.3577C136.921 92.9028 129.95 91.9488 126.76 91.9943Z" fill="#FF5C5C"/>
<path d="M140.658 85.9521C140.339 83.5898 141.979 81.4092 144.349 81.0458C144.576 81.0003 144.804 81.0003 145.032 81.0003L149.087 72.0508L155.102 73.1411L149.224 85.725C149.042 87.7239 147.492 89.3139 145.533 89.5865C143.164 89.9499 141.022 88.3599 140.658 85.9521C140.658 85.9976 140.658 85.9976 140.658 85.9521Z" fill="#FFB6B6"/>
<path d="M152.368 81.0004C151.958 81.2275 151.456 81.2729 151.001 81.1821L147.356 80.4552C146.262 80.2281 145.533 79.1378 145.761 78.0475C145.806 77.9112 151.456 65.5544 151.502 65.4181L152.231 63.8281C152.368 63.5101 152.231 63.1012 151.912 62.9195L140.749 57.7406C138.061 56.514 136.694 53.5157 137.468 50.6991C138.288 47.6553 141.296 45.7927 144.348 46.3378H144.394L156.469 52.5162C160.25 53.1977 162.711 56.7866 162.073 60.5572C161.982 61.1932 161.754 61.7838 161.481 62.3289L153.233 80.0918C153.051 80.5006 152.732 80.8187 152.368 81.0004Z" fill="#FF5C5C"/>
<path d="M69.9869 45.929C63.3345 45.8835 56.7732 44.4298 50.7132 41.704C49.9841 41.386 49.4829 40.6592 49.4829 39.8414V23.3052C49.4829 22.1694 50.3942 21.2609 51.5333 21.2609H88.4406C89.5797 21.2609 90.491 22.1694 90.491 23.3052V39.8414C90.491 40.6592 90.0353 41.386 89.2607 41.704C83.2462 44.4298 76.6394 45.8835 69.9869 45.929Z" fill="#FF5C5C"/>
<path d="M69.9872 32.5274C69.7138 32.5274 69.4404 32.4819 69.2126 32.3457L39.9146 20.0343C38.8666 19.58 38.3654 18.3989 38.8211 17.354C39.0489 16.8543 39.459 16.4454 39.9602 16.2183L69.2582 5.17895C69.7138 4.99723 70.2606 4.99723 70.7162 5.17895L99.6042 16.2637C100.652 16.6726 101.199 17.8537 100.789 18.8986C100.607 19.3983 100.196 19.8072 99.6953 20.0343L70.8074 32.3457C70.534 32.4819 70.2606 32.5274 69.9872 32.5274Z" fill="#FF5C5C"/>
<path d="M52.9004 42.8398C54.4102 42.8398 55.6342 41.6195 55.6342 40.1141C55.6342 38.6087 54.4102 37.3883 52.9004 37.3883C51.3905 37.3883 50.1665 38.6087 50.1665 40.1141C50.1665 41.6195 51.3905 42.8398 52.9004 42.8398Z" fill="#2C2C2C"/>
<path opacity="0.2" d="M99.7863 18.308L70.8984 30.6193C70.4427 30.801 69.9415 30.801 69.4859 30.6193L40.1879 18.308C39.8234 18.1717 39.5044 17.8991 39.3222 17.5357C38.821 18.3989 39.1399 19.5346 40.0056 20.0343C40.0512 20.0797 40.1423 20.1252 40.1879 20.1252L69.4403 32.4365C69.8959 32.6182 70.3972 32.6182 70.8528 32.4365L99.7863 20.1252C100.698 19.7163 101.153 18.6714 100.743 17.7629C100.698 17.7174 100.698 17.6266 100.652 17.5811C100.424 17.8991 100.151 18.1263 99.7863 18.308Z" fill="black"/>
<path d="M53.128 40.1141C53.4014 40.1141 53.5837 39.9323 53.5837 39.6598V24.441L68.62 18.9895C68.8933 18.9895 69.0756 18.8077 69.0756 18.5352C69.0756 18.2626 68.8933 18.0809 68.62 18.0809L53.5837 23.5324C53.3558 23.5324 53.0824 23.6232 52.9457 23.805C52.7635 23.9867 52.6724 24.2138 52.6724 24.441V39.6598C52.6724 39.8869 52.9002 40.1141 53.128 40.1141Z" fill="#2C2C2C"/>
<path d="M143.027 20.0343C145.292 20.0343 147.128 18.0207 147.128 15.5368C147.128 13.0529 145.292 11.0393 143.027 11.0393C140.762 11.0393 138.926 13.0529 138.926 15.5368C138.926 18.0207 140.762 20.0343 143.027 20.0343Z" fill="#2C2C2C"/>
<path d="M142.617 31.4825C143.825 31.4825 144.804 30.4045 144.804 29.0747C144.804 27.745 143.825 26.667 142.617 26.667C141.409 26.667 140.43 27.745 140.43 29.0747C140.43 30.4045 141.409 31.4825 142.617 31.4825Z" fill="#FFB8B8"/>
<path d="M144.804 23.1689C145.987 23.1689 146.946 22.1113 146.946 20.8066C146.946 19.5019 145.987 18.4443 144.804 18.4443C143.621 18.4443 142.663 19.5019 142.663 20.8066C142.663 22.1113 143.621 23.1689 144.804 23.1689Z" fill="#2C2C2C"/>
<path d="M136.503 16.9496C136.891 16.9265 137.279 16.9958 137.612 17.1344C137.917 17.3191 138.194 17.5731 138.36 17.8503C139.219 18.9356 140.327 19.8362 141.63 20.529C142.6 21.0371 143.819 21.6837 143.653 22.6305C143.57 22.9538 143.403 23.254 143.182 23.508C142.295 24.8243 141.935 26.3485 142.156 27.8495L139.496 24.6165C139.08 24.1084 138.332 23.5311 137.695 23.8544C137.473 23.9699 137.335 24.1546 137.113 24.247C136.586 24.4779 136.005 24.0392 135.561 23.739C133.954 22.6767 131.626 22.9538 129.631 23.3002C128.689 23.4618 127.636 23.6466 127.082 24.3163C126.14 25.4016 127.11 26.9951 126.583 28.2421C126.278 28.0573 126.057 27.7802 126.001 27.48C125.253 27.5031 124.311 27.4338 123.978 26.8565C123.867 26.6256 123.84 26.3946 123.812 26.1637C123.701 25.1938 123.119 24.3163 122.759 23.4157C122.399 22.515 122.233 21.4297 122.842 20.6214C123.064 20.3443 123.341 20.0903 123.673 19.9055C127.276 17.3653 131.987 16.9496 136.503 16.9496Z" fill="#2C2C2C"/>
</svg>
