<svg width="551" height="452" viewBox="0 0 551 452" fill="none" xmlns="http://www.w3.org/2000/svg">
<g clip-path="url(#clip0)">
<path d="M136.003 412.437L137.123 436.07L137.123 436.071C137.312 440.065 135.908 443.971 133.218 446.929C130.529 449.887 126.775 451.656 122.783 451.845L122.294 451.868L120.459 413.175L136.003 412.437Z" fill="#2C2C2C"/>
<path id="leaf" d="M471.861 372.499C460.61 394.465 446.339 415.708 428.283 434.935C427.882 435.369 427.477 435.792 427.068 436.223L384.288 415.962C384.55 415.527 384.837 415.039 385.145 414.505C403.522 383.049 514.454 191.169 510.948 147.711C511.357 151.295 524.506 269.829 471.861 372.499Z" fill="#E6E6E6"/>
<path id="leaf" d="M436.536 438.844C435.937 439.185 435.323 439.518 434.705 439.84L402.613 424.641C403.061 424.322 403.584 423.946 404.185 423.522C414.017 416.46 443.253 395.271 471.861 372.499C502.604 348.028 532.627 321.734 537.086 309.183C536.18 312.061 508.041 399.546 436.536 438.844Z" fill="#E6E6E6"/>
<path id="email" d="M53.385 450.924C80.7386 450.924 102.913 428.741 102.913 401.376C102.913 374.011 80.7386 351.827 53.385 351.827C26.0314 351.827 3.85693 374.011 3.85693 401.376C3.85693 428.741 26.0314 450.924 53.385 450.924Z" fill="#FF5C5C"/>
<path d="M73.2241 380.583H33.5455C31.7922 380.585 30.1113 381.283 28.8715 382.523C27.6317 383.763 26.9344 385.445 26.9324 387.199V415.552C26.9343 417.306 27.6317 418.988 28.8715 420.228C30.1112 421.469 31.7922 422.166 33.5455 422.168H73.2241C74.9774 422.166 76.6584 421.469 77.8982 420.228C79.1379 418.988 79.8353 417.306 79.8373 415.552V387.199C79.8353 385.445 79.1379 383.763 77.8981 382.523C76.6583 381.283 74.9774 380.585 73.2241 380.583ZM73.2241 384.363C73.461 384.364 73.6968 384.395 73.926 384.455L53.3894 400.844L32.9728 384.422C33.1612 384.383 33.3531 384.363 33.5454 384.363H73.2241ZM73.2241 418.388H33.5455C32.7941 418.387 32.0737 418.088 31.5424 417.556C31.011 417.025 30.7122 416.304 30.7113 415.552V387.453L52.2009 404.739C52.5355 405.008 52.9518 405.155 53.3812 405.156C53.8106 405.157 54.2274 405.011 54.5631 404.744L76.0583 387.589V415.552C76.0575 416.304 75.7586 417.025 75.2273 417.556C74.6959 418.088 73.9755 418.387 73.2241 418.388Z" fill="white"/>
<path d="M244.525 329.84L255.607 329.931C256.729 329.941 257.839 329.705 258.86 329.241C259.881 328.777 260.788 328.096 261.519 327.245C262.25 326.394 262.786 325.394 263.091 324.314C263.396 323.235 263.461 322.102 263.283 320.994C263.092 319.802 262.623 318.671 261.915 317.694C261.207 316.716 260.28 315.918 259.207 315.364C258.135 314.81 256.947 314.516 255.741 314.505C254.534 314.494 253.341 314.767 252.259 315.301L241.808 320.46L206.064 328.435L190.75 312.772L181.954 327.265L202.618 343.237L244.525 329.84Z" fill="#FFB8B8"/>
<path d="M242.448 444.383L229.392 446.895C220.473 418.771 210.811 392.137 210.811 371.538C198.19 385.591 182.539 393.63 164.109 396.155L166.118 365.007L181.183 356.969L204.24 346.323C206.259 345.391 208.437 344.852 210.657 344.735C214.974 344.507 219.222 345.886 222.584 348.604C225.945 351.322 228.183 355.189 228.866 359.459L242.448 444.383Z" fill="#393939"/>
<path d="M179.927 392.387L174.724 396.343C172.486 398.045 169.842 399.131 167.055 399.495C164.269 399.858 161.435 399.486 158.836 398.416C143.931 387.239 133.342 390.536 123.745 407.406C112.233 394.409 109.393 375.636 119.667 356.215L176.663 357.471L188.213 353.955L179.927 392.387Z" fill="#393939"/>
<path d="M160.946 450.594C157.68 451.599 154.164 451.423 151.015 450.095C147.866 448.768 145.285 446.374 143.722 443.334C138.6 438.821 134.278 432.359 130.53 424.5C127.84 418.736 125.531 412.801 123.616 406.735C121.022 398.721 125.359 389.965 133.432 387.567C133.672 387.496 133.915 387.429 134.161 387.365C144.937 384.598 156.003 390.816 159.687 401.318L170.398 431.858C171.031 433.662 171.302 435.573 171.197 437.482C171.091 439.391 170.611 441.261 169.783 442.984C168.955 444.707 167.796 446.251 166.373 447.526C164.949 448.801 163.287 449.783 161.484 450.416C161.306 450.479 161.126 450.538 160.946 450.594Z" fill="#393939"/>
<path opacity="0.2" d="M128.706 421.023C128.706 421.023 141.26 435.089 143.771 443.128L128.706 421.023Z" fill="black"/>
<path d="M80.0151 354.636L75.8134 364.896C75.3883 365.934 75.1946 367.052 75.2459 368.173C75.2971 369.293 75.5921 370.389 76.1103 371.384C76.6285 372.379 77.3573 373.249 78.2461 373.933C79.1348 374.617 80.162 375.099 81.256 375.345C82.4335 375.61 83.6567 375.595 84.8271 375.301C85.9976 375.007 87.0827 374.442 87.995 373.651C88.9074 372.861 89.6216 371.867 90.0801 370.75C90.5386 369.634 90.7286 368.425 90.6348 367.221L89.7295 355.597L95.6083 319.434L115.833 311.03L105.651 297.475L83.151 310.735L80.0151 354.636Z" fill="#FFB8B8"/>
<path id="shirt" d="M180.43 356.215C166.001 380.461 137.237 389.85 112.601 370.864C116.935 356.619 130.927 317.248 121.887 315.741C102.695 323.793 102.667 304.888 99.0776 295.427L142.767 279.351L166.369 285.882L171.207 287.599C174.356 288.717 177.087 290.772 179.033 293.489C180.979 296.206 182.047 299.454 182.092 302.796C172.178 317.125 164.838 332.411 180.43 356.215Z" fill="#FF5C5C"/>
<path id="shirt" d="M185.954 336.622L168.629 322.304L174.404 288.896L198.006 314.015L185.954 336.622Z" fill="#FF5C5C"/>
<path d="M473.429 107.115H470.953V39.2673C470.953 28.853 466.818 18.8652 459.457 11.5011C452.096 4.13708 442.112 0 431.702 0H288.017C277.607 0 267.623 4.13708 260.262 11.5011C252.901 18.8652 248.766 28.853 248.766 39.2673V411.486C248.766 421.9 252.901 431.888 260.262 439.252C267.623 446.616 277.607 450.753 288.017 450.753H431.701C442.111 450.753 452.095 446.616 459.456 439.252C466.817 431.888 470.952 421.9 470.952 411.486V155.41H473.429L473.429 107.115Z" fill="#2C2C2C"/>
<path id="phone-background" d="M433.286 10.2151H414.53C415.393 12.3308 415.723 14.6263 415.49 16.8994C415.257 19.1725 414.469 21.3535 413.195 23.25C411.921 25.1466 410.2 26.7006 408.184 27.7751C406.168 28.8496 403.919 29.4115 401.635 29.4115H319.32C317.037 29.4113 314.788 28.8492 312.772 27.7748C310.757 26.7004 309.036 25.1466 307.763 23.2503C306.489 21.354 305.701 19.1734 305.467 16.9006C305.234 14.6278 305.564 12.3325 306.426 10.217H288.906C281.131 10.217 273.675 13.3066 268.178 18.8062C262.681 24.3058 259.593 31.7648 259.593 39.5424V411.213C259.593 418.99 262.681 426.449 268.178 431.949C273.675 437.448 281.131 440.538 288.906 440.538H433.28C441.054 440.538 448.51 437.448 454.008 431.949C459.505 426.449 462.593 418.99 462.593 411.213V411.212V39.5405C462.593 31.7629 459.505 24.3039 454.008 18.8043C448.51 13.3047 441.054 10.2151 433.28 10.2151H433.286L433.286 10.2151Z" fill="#393939"/>
<path id="phone-text" d="M361.344 419.768C370.234 419.768 377.44 412.558 377.44 403.664C377.44 394.771 370.234 387.561 361.344 387.561C352.454 387.561 345.247 394.771 345.247 403.664C345.247 412.558 352.454 419.768 361.344 419.768Z" fill="#E6E6E6"/>
<path id="phone-text" d="M296.043 254.741C294.522 254.741 293.283 256.155 293.283 257.892C293.283 259.63 294.522 261.043 296.043 261.043H426.143C427.664 261.043 428.902 259.63 428.902 257.892C428.902 256.155 427.664 254.741 426.143 254.741H296.043Z" fill="#EDEDED"/>
<path id="phone-text" d="M296.043 329.064C294.522 329.064 293.283 330.478 293.283 332.215C293.283 333.953 294.522 335.366 296.043 335.366H426.143C427.664 335.366 428.902 333.953 428.902 332.215C428.902 330.478 427.664 329.064 426.143 329.064H296.043Z" fill="#EDEDED"/>
<path id="phone-text" d="M296.043 273.648C294.522 273.648 293.283 275.062 293.283 276.8C293.283 278.537 294.522 279.951 296.043 279.951H352.025C353.547 279.951 354.785 278.537 354.785 276.8C354.785 275.062 353.547 273.648 352.025 273.648H296.043Z" fill="#EDEDED"/>
<path id="phone-text" d="M296.043 291.671C294.522 291.671 293.283 293.084 293.283 294.822C293.283 296.559 294.522 297.973 296.043 297.973H426.143C427.664 297.973 428.902 296.559 428.902 294.822C428.902 293.084 427.664 291.671 426.143 291.671H296.043Z" fill="#EDEDED"/>
<path id="phone-text" d="M296.043 310.578C294.522 310.578 293.283 311.992 293.283 313.729C293.283 315.467 294.522 316.881 296.043 316.881H352.025C353.547 316.881 354.785 315.467 354.785 313.729C354.785 311.992 353.547 310.578 352.025 310.578H296.043Z" fill="#EDEDED"/>
<path id="phone-app" d="M320.603 111.254H401.59C402.485 111.255 403.343 111.611 403.975 112.244C404.608 112.876 404.964 113.734 404.965 114.629V199.009C404.964 199.904 404.608 200.762 403.975 201.395C403.343 202.028 402.485 202.384 401.59 202.385H320.603C319.709 202.384 318.851 202.028 318.219 201.395C317.586 200.762 317.23 199.904 317.229 199.009V114.629C317.23 113.734 317.586 112.876 318.219 112.244C318.851 111.611 319.709 111.255 320.603 111.254Z" fill="#FF5C5C"/>
<path d="M384.334 184.984C384.635 184.985 384.933 184.926 385.211 184.811C385.49 184.696 385.743 184.528 385.956 184.315C386.169 184.102 386.339 183.849 386.454 183.571C386.57 183.293 386.629 182.995 386.629 182.693C386.629 182.392 386.57 182.094 386.455 181.815C386.34 181.537 386.171 181.284 385.958 181.071C385.745 180.858 385.492 180.689 385.214 180.574C384.935 180.459 384.637 180.4 384.336 180.4H337.86C337.559 180.4 337.261 180.459 336.982 180.573C336.704 180.688 336.451 180.857 336.238 181.07C336.024 181.282 335.855 181.535 335.74 181.813C335.624 182.092 335.565 182.39 335.564 182.691C335.564 182.992 335.624 183.291 335.739 183.569C335.854 183.848 336.023 184.1 336.236 184.313C336.449 184.526 336.702 184.695 336.98 184.81C337.258 184.925 337.557 184.985 337.858 184.984H384.334Z" fill="white"/>
<path d="M384.334 171.481C384.941 171.481 385.524 171.239 385.954 170.809C386.383 170.38 386.625 169.797 386.625 169.189C386.625 168.581 386.383 167.998 385.954 167.568C385.524 167.138 384.941 166.897 384.334 166.897H337.86C337.253 166.897 336.67 167.138 336.24 167.567C335.81 167.997 335.568 168.58 335.568 169.188C335.568 169.796 335.809 170.379 336.238 170.809C336.668 171.239 337.25 171.48 337.858 171.481H384.334Z" fill="white"/>
<path d="M361.097 128.654C363.949 128.654 366.737 129.5 369.108 131.086C371.48 132.671 373.328 134.924 374.419 137.56C375.511 140.196 375.796 143.097 375.24 145.895C374.684 148.694 373.31 151.264 371.294 153.282C369.277 155.299 366.707 156.673 363.91 157.23C361.113 157.787 358.213 157.501 355.578 156.409C352.943 155.317 350.691 153.468 349.107 151.096C347.522 148.723 346.676 145.934 346.676 143.081C346.681 139.256 348.201 135.589 350.905 132.884C353.608 130.18 357.273 128.659 361.097 128.654Z" fill="white"/>
<path d="M176.331 264.428C181.134 255.639 177.905 244.619 169.119 239.814C160.334 235.01 149.319 238.24 144.516 247.029C139.714 255.818 142.943 266.838 151.728 271.642C160.513 276.447 171.529 273.217 176.331 264.428Z" fill="#FFB6B6"/>
<path d="M223.701 434.898L247.351 434.897H247.352C251.349 434.897 255.182 436.486 258.009 439.313C260.835 442.141 262.423 445.976 262.423 449.975V450.465L223.702 450.466L223.701 434.898Z" fill="#2C2C2C"/>
<path id="ground" d="M550.381 452H0.619101C0.454905 452 0.297434 451.935 0.18133 451.819C0.0652261 451.702 0 451.545 0 451.381C0 451.216 0.0652261 451.059 0.18133 450.943C0.297434 450.826 0.454905 450.761 0.619101 450.761H550.381C550.545 450.761 550.703 450.826 550.819 450.943C550.935 451.059 551 451.216 551 451.381C551 451.545 550.935 451.702 550.819 451.819C550.703 451.935 550.545 452 550.381 452Z" fill="#CACACA"/>
<path d="M131 249C135.418 249 139 245.866 139 242C139 238.134 135.418 235 131 235C126.582 235 123 238.134 123 242C123 245.866 126.582 249 131 249Z" fill="#2C2C2C"/>
<path d="M156.821 243.954C156.821 243.954 164.977 246.456 169.2 247.457C173.424 248.458 172.987 245.622 172.987 245.622C172.987 245.622 178.522 246.456 178.231 245.789C177.939 245.121 180.561 241.618 177.502 237.614C174.444 233.611 175.318 230.608 175.318 230.608H172.696L171.968 229.44H167.89C167.89 229.44 163.381 224.912 155.37 226.246C147.36 227.581 137.887 231.108 137.013 236.613C136.894 237.36 136.738 238.19 136.557 239.066C134.366 249.658 139.021 259.569 143.848 268.945C145.034 271.25 150.773 276.275 150.626 272.827C150.479 269.379 145.46 261.637 148.956 261.136C152.451 260.636 158.423 250.46 156.821 243.954Z" fill="#2C2C2C"/>
</g>
<defs>
<clipPath id="clip0">
<rect width="551" height="452" fill="white"/>
</clipPath>
</defs>
</svg>
