<svg width="1920" height="461" viewBox="0 0 1920 461" fill="none" xmlns="http://www.w3.org/2000/svg">
<path fill-rule="evenodd" clip-rule="evenodd" d="M0 115L80 87C160 58 320 0 480 39C640 77 800 211 960 269C1120 327 1280 307 1440 250C1600 192 1760 96 1840 48L1920 0V461H1840C1760 461 1600 461 1440 461C1280 461 1120 461 960 461C800 461 640 461 480 461C320 461 160 461 80 461H0V115Z" fill="#8C8C8C"/>
<path fill-rule="evenodd" clip-rule="evenodd" d="M0 231L80 259C160 288 320 346 480 288C640 231 800 58 960 58C1120 58 1280 231 1440 298C1600 365 1760 327 1840 307L1920 288V461H1840C1760 461 1600 461 1440 461C1280 461 1120 461 960 461C800 461 640 461 480 461C320 461 160 461 80 461H0V231Z" fill="#656565"/>
</svg>
