<svg width="1920" height="352" viewBox="0 0 1920 352" fill="none" xmlns="http://www.w3.org/2000/svg">
<path fill-rule="evenodd" clip-rule="evenodd" d="M0 352L53 339.089C107 326.178 213 300.355 320 267.737C427 235.12 533 195.707 640 176C747 156.293 853 156.293 960 182.795C1067 208.618 1173 260.942 1280 280.649C1387 300.355 1493 286.764 1600 254.147C1707 221.529 1813 169.884 1867 143.382L1920 117.56V0H1867C1813 0 1707 0 1600 0C1493 0 1387 0 1280 0C1173 0 1067 0 960 0C853 0 747 0 640 0C533 0 427 0 320 0C213 0 107 0 53 0H0V352Z" fill="#2C2C2C"/>
</svg>
