<svg width="1920" height="750" viewBox="0 0 1920 750" fill="none" xmlns="http://www.w3.org/2000/svg">
<path fill-rule="evenodd" clip-rule="evenodd" d="M2 320.71L82 273.037C162 225.363 322 130.637 482 89.1548C641 47.673 801 59.4365 961 100.918C1121 142.4 1281 213.6 1441 201.837C1600 190.073 1760 94.727 1840 47.673L1920 0V356H1840C1760 356 1600 356 1441 356C1281 356 1121 356 961 356C801 356 641 356 482 356C322 356 162 356 82 356H2V320.71Z" fill="#656565"/>
<path fill-rule="evenodd" clip-rule="evenodd" d="M0 202L80 232.434C160 262.087 320 322.173 480 329.977C640 337 800 292.52 960 262.087C1120 232.434 1280 217.607 1440 224.63C1600 232.434 1760 262.087 1840 276.913L1920 292.52V472H1840C1760 472 1600 472 1440 472C1280 472 1120 472 960 472C800 472 640 472 480 472C320 472 160 472 80 472H0V202Z" fill="#8C8C8C"/>
<path fill-rule="evenodd" clip-rule="evenodd" d="M0 530L64 568C128 606 256 683 384 722C512 760 640 760 768 712C896 664 1024 568 1152 568C1280 568 1408 664 1536 693C1664 722 1792 683 1856 664L1920 645V472H1856C1792 472 1664 472 1536 472C1408 472 1280 472 1152 472C1024 472 896 472 768 472C640 472 512 472 384 472C256 472 128 472 64 472H0V530Z" fill="#8C8C8C"/>
</svg>
