<svg width="30" height="30" viewBox="0 0 30 30" fill="none" xmlns="http://www.w3.org/2000/svg">
<rect width="30" height="30" rx="4" fill="#FF5C5C"/>
<path d="M11.8059 28H8.77852V16.2422H4.90156V13.7227H15.6828V16.2422H11.8059V28ZM27.7078 24.0352C27.7078 25.3242 27.2423 26.3398 26.3113 27.082C25.3868 27.8242 24.0978 28.1953 22.4441 28.1953C20.9207 28.1953 19.573 27.9089 18.4012 27.3359V24.5234C19.3647 24.9531 20.1785 25.2559 20.8426 25.4316C21.5132 25.6074 22.1251 25.6953 22.6785 25.6953C23.3426 25.6953 23.8504 25.5684 24.202 25.3145C24.56 25.0605 24.7391 24.6829 24.7391 24.1816C24.7391 23.9017 24.6609 23.6543 24.5047 23.4395C24.3484 23.2181 24.1173 23.0065 23.8113 22.8047C23.5118 22.6029 22.8966 22.2806 21.9656 21.8379C21.0932 21.4277 20.4389 21.0339 20.0027 20.6562C19.5665 20.2786 19.2182 19.8392 18.9578 19.3379C18.6974 18.8366 18.5672 18.2507 18.5672 17.5801C18.5672 16.3171 18.9936 15.3242 19.8465 14.6016C20.7059 13.8789 21.8908 13.5176 23.4012 13.5176C24.1434 13.5176 24.8497 13.6055 25.5203 13.7812C26.1974 13.957 26.9038 14.2044 27.6395 14.5234L26.6629 16.877C25.9012 16.5645 25.2697 16.3464 24.7684 16.2227C24.2736 16.099 23.7853 16.0371 23.3035 16.0371C22.7306 16.0371 22.2911 16.1706 21.9852 16.4375C21.6792 16.7044 21.5262 17.0527 21.5262 17.4824C21.5262 17.7493 21.588 17.9837 21.7117 18.1855C21.8354 18.3809 22.0307 18.5729 22.2977 18.7617C22.5711 18.944 23.2124 19.276 24.2215 19.7578C25.5561 20.3958 26.4708 21.0371 26.9656 21.6816C27.4604 22.3197 27.7078 23.1042 27.7078 24.0352Z" fill="white"/>
</svg>